<?xml version="1.0" standalone="no"?>
<!DOCTYPE svg PUBLIC "-//W3C//DTD SVG 20010904//EN"
 "http://www.w3.org/TR/2001/REC-SVG-20010904/DTD/svg10.dtd">
<svg version="1.0" xmlns="http://www.w3.org/2000/svg"
 width="156.000000pt" height="40.000000pt" viewBox="0 0 156.000000 40.000000"
 preserveAspectRatio="xMidYMid meet">
<metadata>
Created by potrace 1.16, written by Peter Selinger 2001-2019
</metadata>
<g transform="translate(0.000000,40.000000) scale(0.100000,-0.100000)"
fill="#000000" stroke="none">
<path d="M0 393 c0 -4 44 -79 97 -169 93 -153 99 -161 128 -160 28 1 36 12
117 150 48 82 91 153 97 159 20 20 11 27 -33 27 l-44 0 -48 -82 c-26 -46 -57
-99 -68 -119 l-21 -37 -70 119 -70 118 -42 1 c-24 0 -43 -3 -43 -7z"/>
</g>
</svg>
